<?xml version="1.0" standalone="no"?>
<!DOCTYPE svg PUBLIC "-//W3C//DTD SVG 20010904//EN"
 "http://www.w3.org/TR/2001/REC-SVG-20010904/DTD/svg10.dtd">
<svg version="1.0" xmlns="http://www.w3.org/2000/svg"
 width="200.000000pt" height="200.000000pt" viewBox="0 0 200.000000 200.000000"
 preserveAspectRatio="xMidYMid meet">
<metadata>
Created by potrace 1.16, written by Peter Selinger 2001-2019
</metadata>
<g transform="translate(0.000000,200.000000) scale(0.100000,-0.100000)"
fill="#000000" stroke="none">
<path d="M961 1802 c-24 -31 -42 -42 -93 -56 -114 -32 -213 -107 -269 -204
-17 -29 -34 -43 -59 -51 -50 -15 -83 -53 -89 -103 -5 -38 -9 -43 -41 -51 -73
-18 -100 -68 -100 -186 l0 -79 -47 -23 c-65 -32 -93 -77 -93 -147 0 -49 -4
-59 -36 -94 l-35 -39 35 -40 c32 -35 36 -45 36 -95 0 -60 15 -97 52 -130 38
-35 61 -43 147 -50 80 -7 81 -7 81 -35 0 -45 17 -78 52 -99 28 -17 51 -20 156
-20 117 0 125 -1 157 -25 18 -14 50 -29 72 -32 27 -5 48 -18 76 -47 l37 -41
38 41 c26 29 48 44 74 48 21 4 51 18 67 31 27 24 36 25 150 25 83 0 133 5 156
14 38 16 65 60 65 106 0 30 0 30 58 30 74 0 124 14 162 47 44 37 60 74 60 140
0 52 3 60 36 94 l36 37 -36 40 c-32 35 -36 45 -36 94 0 70 -28 115 -93 147
l-47 23 0 84 c0 51 -6 98 -14 119 -16 36 -59 65 -101 65 -23 0 -25 4 -25 41 0
53 -51 109 -99 109 -25 0 -33 6 -47 36 -45 94 -176 197 -287 224 -35 9 -55 22
-78 51 -17 22 -34 39 -39 39 -5 0 -22 -17 -39 -38z m68 -66 c13 -13 39 -27 59
-31 107 -19 224 -110 276 -213 14 -27 31 -50 38 -49 72 3 98 -23 98 -97 l0
-53 52 -5 c34 -4 56 -12 65 -24 16 -21 19 -194 3 -194 -6 0 -10 31 -10 73 0
99 -13 117 -86 117 l-54 0 0 64 c0 56 -3 67 -22 80 -43 31 -67 12 -28 -21 16
-14 20 -30 20 -85 l0 -67 68 -3 67 -3 0 -75 0 -75 -137 -3 c-76 -1 -138 0
-138 3 0 3 11 22 24 43 94 144 64 348 -69 471 -54 48 -141 91 -187 91 -12 0
-32 10 -45 22 -22 20 -24 20 -42 4 -10 -10 -44 -23 -74 -30 -147 -34 -255
-149 -288 -304 -17 -85 6 -186 62 -270 l21 -33 -138 3 -139 3 -3 72 c-3 64 -1
72 17 78 12 3 26 3 31 0 6 -4 29 -4 50 0 l40 7 0 70 c0 61 2 71 20 75 31 8 25
35 -7 31 -35 -4 -53 -38 -53 -100 l0 -48 -49 0 c-71 0 -81 -14 -81 -111 0 -66
-3 -79 -16 -79 -14 0 -15 13 -12 91 3 81 6 93 27 110 15 12 39 19 67 19 l44 0
0 55 c0 66 22 95 72 95 30 0 36 6 62 55 53 101 156 182 263 206 30 7 62 22 74
36 28 29 30 29 58 -1z m118 -139 c115 -59 177 -160 177 -287 0 -111 -43 -193
-138 -261 l-39 -29 267 0 c295 0 322 -5 350 -59 9 -17 16 -55 16 -87 0 -48 4
-62 25 -84 l25 -26 -25 -24 c-21 -20 -25 -32 -25 -82 0 -67 -17 -107 -57 -134
-27 -18 -55 -19 -721 -17 -760 3 -735 1 -767 63 -8 16 -15 55 -15 88 0 50 -4
62 -25 82 l-25 24 25 26 c21 22 25 36 25 84 0 31 7 70 15 86 29 57 47 60 346
60 l272 0 -39 28 c-100 73 -143 152 -144 262 0 62 5 85 28 135 39 82 115 148
202 176 14 5 63 7 110 5 69 -2 95 -8 137 -29z m288 -1158 c0 -11 -28 -15 -142
-19 -138 -5 -142 -6 -167 -32 -19 -21 -34 -28 -64 -28 -21 0 -43 -5 -50 -12
-9 -9 -15 -9 -24 0 -7 7 -29 12 -50 12 -27 0 -44 7 -62 27 -24 26 -26 26 -143
24 -115 -2 -173 8 -173 29 0 6 147 11 428 12 235 2 432 3 437 2 6 0 10 -7 10
-15z m-905 -22 l15 -32 141 -3 141 -3 27 -29 c20 -23 35 -30 63 -30 24 0 45
-8 60 -22 l23 -21 23 21 c15 14 36 22 60 22 28 0 43 7 64 30 l26 30 135 0
c144 0 172 8 172 52 0 10 5 18 10 18 12 0 13 -50 2 -66 -18 -27 -56 -34 -180
-34 -124 0 -129 -1 -152 -25 -14 -15 -39 -27 -66 -31 -32 -4 -51 -15 -69 -36
l-25 -30 -26 31 c-15 18 -35 31 -48 31 -37 0 -86 21 -97 41 -9 17 -22 19 -147
19 -125 0 -140 2 -160 20 -13 12 -22 33 -22 50 0 39 11 38 30 -3z"/>
<path d="M964 1527 c-49 -74 -49 -74 -5 -122 23 -25 41 -41 41 -36 0 4 15 23
34 41 30 29 33 37 24 59 -11 30 -56 91 -66 91 -4 0 -17 -15 -28 -33z"/>
<path d="M774 1443 c2 -10 7 -33 11 -50 6 -28 12 -34 48 -43 58 -14 105 -40
128 -68 27 -35 24 -6 -6 55 -27 54 -78 97 -136 113 -46 14 -51 13 -45 -7z"/>
<path d="M1166 1450 c-74 -22 -146 -103 -146 -162 1 -20 2 -21 11 -5 13 23 64
50 118 62 46 11 45 10 65 88 7 30 2 31 -48 17z"/>
<path d="M729 1288 c12 -50 38 -94 68 -115 41 -28 88 -45 114 -41 23 3 23 3
-8 39 -18 19 -48 44 -67 54 -34 18 -47 35 -27 35 23 0 85 -34 121 -66 l39 -35
-9 33 c-22 77 -95 127 -186 128 l-52 0 7 -32z"/>
<path d="M1120 1298 c-48 -25 -75 -57 -86 -101 l-7 -29 47 36 c26 20 51 36 56
36 5 0 17 3 27 7 10 3 -9 -20 -42 -53 -60 -59 -60 -59 -32 -62 17 -2 52 8 82
23 45 21 58 34 79 77 39 79 36 88 -27 88 -35 0 -68 -8 -97 -22z"/>
<path d="M303 983 c-37 -7 -53 -41 -53 -114 0 -53 -4 -69 -20 -84 l-20 -18 20
-22 c16 -17 20 -35 20 -89 0 -58 3 -70 25 -91 14 -15 35 -25 52 -25 27 1 27 1
8 15 -40 28 -53 47 -59 83 -6 39 8 107 23 117 5 2 0 22 -10 42 -33 65 -19 129
38 172 27 20 22 23 -24 14z"/>
<path d="M1677 964 c53 -41 69 -150 28 -184 -13 -11 -12 -16 5 -37 39 -49 20
-151 -34 -184 l-31 -19 28 0 c16 0 38 10 52 25 22 21 25 33 25 93 0 56 4 72
20 87 19 17 19 18 0 43 -15 18 -20 40 -20 84 0 72 -10 93 -51 107 -50 17 -57
13 -22 -15z"/>
<path d="M1570 755 c0 -132 4 -225 9 -225 5 0 17 7 25 16 14 13 16 47 16 214
0 187 -1 200 -19 210 -11 5 -22 10 -25 10 -3 0 -6 -101 -6 -225z"/>
<path d="M380 767 c0 -202 0 -206 23 -222 l22 -15 3 95 3 95 32 0 c20 0 42 8
55 20 19 18 22 31 22 99 0 105 -14 123 -99 129 l-61 4 0 -205z"/>
<path d="M564 957 c-2 -7 -3 -105 -2 -217 3 -204 3 -205 26 -208 21 -3 22 -1
22 92 l0 96 29 0 c37 0 41 -12 41 -112 0 -77 1 -79 23 -76 23 3 24 15 18 208
0 8 2 46 5 83 7 88 0 113 -36 132 -36 19 -119 20 -126 2z"/>
<path d="M805 960 c-12 -4 -27 -15 -34 -24 -19 -22 -25 -130 -16 -280 6 -115
9 -126 26 -126 17 0 19 8 19 73 0 84 7 114 26 121 35 13 43 -4 46 -97 3 -87 4
-92 26 -95 l22 -3 0 193 c-1 202 -3 213 -47 236 -25 14 -40 14 -68 2z"/>
<path d="M979 951 c-24 -19 -24 -23 -24 -189 0 -167 1 -171 24 -196 21 -22 33
-26 83 -26 l58 0 0 120 0 120 -40 0 c-36 0 -40 -2 -40 -25 0 -16 6 -25 15 -25
12 0 15 -14 15 -70 0 -68 -1 -70 -25 -70 -37 0 -45 28 -45 165 0 69 5 135 10
146 14 25 36 24 50 -1 13 -24 60 -28 60 -4 0 8 -13 29 -29 45 -35 34 -77 38
-112 10z"/>
<path d="M1174 947 l-29 -25 0 -189 0 -188 28 -3 27 -3 0 90 c0 93 6 107 40
96 18 -6 20 -15 20 -96 0 -88 0 -89 25 -89 l25 0 0 189 c0 213 -4 227 -71 237
-29 5 -41 1 -65 -19z"/>
<path d="M1350 945 c0 -22 4 -25 35 -25 l35 0 0 -196 0 -195 23 3 c22 3 22 4
25 196 l2 192 35 0 c31 0 35 3 35 25 0 25 0 25 -95 25 -95 0 -95 0 -95 -25z"/>
</g>
</svg>
